<svg version="1.1" id="Layer_1" xmlns="http://www.w3.org/2000/svg" xmlns:xlink="http://www.w3.org/1999/xlink" x="0px" y="0px"
	 width="100%" viewBox="0 0 1958 1950" enable-background="new 0 0 1958 1950" xml:space="preserve">
<path fill="#FFFFFF" opacity="1.000000" stroke="none" 
	d="
M1165.000000,1951.000000 
	C776.666687,1951.000000 388.833344,1951.000000 1.000000,1951.000000 
	C1.000000,1301.000000 1.000000,651.000000 1.000000,1.000000 
	C653.666687,1.000000 1306.333374,1.000000 1959.000000,1.000000 
	C1959.000000,651.000000 1959.000000,1301.000000 1959.000000,1951.000000 
	C1694.500000,1951.000000 1430.000000,1951.000000 1165.000000,1951.000000 
M46.100109,941.440430 
	C46.066822,957.101685 46.020309,972.762878 46.035889,988.424072 
	C46.036747,989.286804 46.553371,990.148926 46.955013,991.936462 
	C47.024624,996.387695 47.094238,1000.838928 47.089363,1006.177734 
	C47.048939,1011.665649 46.904202,1017.155640 47.015030,1022.640442 
	C47.065399,1025.133179 47.621765,1027.615723 47.972992,1031.026978 
	C48.304371,1038.961548 48.523209,1046.902832 48.990982,1054.829346 
	C49.913528,1070.462158 50.910603,1086.090942 51.996986,1101.713135 
	C52.914268,1114.903564 53.725563,1128.110474 55.082977,1141.258667 
	C56.781490,1157.710938 58.899677,1174.122192 61.006111,1190.529419 
	C62.899490,1205.277222 64.743736,1220.040894 67.117500,1234.715332 
	C69.763184,1251.070557 72.919655,1267.344727 75.968666,1283.632690 
	C79.271797,1301.278198 82.052589,1319.056152 86.246658,1336.491333 
	C91.815010,1359.639160 98.135834,1382.627197 104.855637,1405.471436 
	C113.020454,1433.228149 122.875366,1460.443726 135.246735,1486.618652 
	C145.720047,1508.777710 156.149704,1531.041870 168.226273,1552.336548 
	C182.074203,1576.754517 197.346527,1600.423096 215.490707,1622.005737 
	C229.487015,1638.654419 243.049240,1655.758545 258.134155,1671.375854 
	C272.745941,1686.503662 288.706207,1700.401001 304.729767,1714.070312 
	C317.544739,1725.002441 330.886658,1735.451904 344.801208,1744.931885 
	C373.332794,1764.370239 403.087067,1781.738281 434.447327,1796.412109 
	C458.107819,1807.482910 482.152924,1817.460449 506.797852,1826.016235 
	C540.537964,1837.729492 574.825012,1847.518433 609.968384,1854.072754 
	C635.550293,1858.843872 661.122009,1863.713257 686.803406,1867.892944 
	C704.891174,1870.836670 723.148132,1872.754883 741.343018,1875.022095 
	C757.927551,1877.088623 774.508545,1879.219238 791.131287,1880.932373 
	C806.828125,1882.550049 822.565247,1883.829590 838.306641,1884.948120 
	C855.253784,1886.152710 872.215637,1887.294189 889.191040,1887.919556 
	C907.774353,1888.604004 926.380493,1888.669312 944.976868,1888.997437 
	C947.974670,1889.050415 950.973145,1889.067505 954.378113,1889.872314 
	C969.093933,1889.914551 983.809692,1889.971436 998.525513,1889.960327 
	C999.360046,1889.959717 1000.194275,1889.400513 1001.958862,1889.015503 
	C1021.049988,1888.677856 1040.142334,1888.394409 1059.231812,1887.979004 
	C1068.333374,1887.780884 1077.431763,1887.377808 1086.527588,1886.978638 
	C1092.130615,1886.732666 1097.733154,1886.404419 1103.324219,1885.963745 
	C1119.558105,1884.684204 1135.786987,1883.341553 1152.015869,1881.999146 
	C1159.882446,1881.348389 1167.759766,1880.783691 1175.604614,1879.927124 
	C1186.349365,1878.753662 1197.062866,1877.297241 1207.798828,1876.039307 
	C1219.854248,1874.626709 1231.946777,1873.500000 1243.973755,1871.881592 
	C1256.765137,1870.160156 1269.503296,1868.038452 1282.256104,1866.036865 
	C1297.271851,1863.680176 1312.370850,1861.728271 1327.265747,1858.759155 
	C1346.289673,1854.967163 1365.191528,1850.525391 1384.063599,1846.018433 
	C1413.722290,1838.935669 1442.687378,1829.510010 1471.082153,1818.482788 
	C1497.359863,1808.277710 1523.321045,1797.238281 1547.788452,1783.073730 
	C1565.487427,1772.827637 1583.412476,1762.905029 1600.557251,1751.789917 
	C1614.918457,1742.479614 1628.616211,1732.054688 1642.020996,1721.385986 
	C1656.209106,1710.093872 1670.183716,1698.440796 1683.383911,1686.022949 
	C1701.168213,1669.292603 1718.200928,1651.748413 1733.189819,1632.373901 
	C1742.907104,1619.813477 1752.893677,1607.439941 1762.118896,1594.525146 
	C1777.314575,1573.252563 1791.498535,1551.288574 1803.049316,1527.778076 
	C1813.920654,1505.650391 1825.631592,1483.822754 1834.751465,1460.976318 
	C1845.352905,1434.417603 1854.290527,1407.120239 1862.526123,1379.715454 
	C1868.839111,1358.708374 1873.198486,1337.093994 1877.941772,1315.642334 
	C1881.351562,1300.220459 1884.181519,1284.659424 1886.861816,1269.090332 
	C1889.216309,1255.414062 1891.069702,1241.649780 1893.019897,1227.906616 
	C1894.492310,1217.531128 1895.796265,1207.131470 1897.123169,1196.735840 
	C1898.781738,1183.742554 1900.491821,1170.754272 1901.976440,1157.740601 
	C1902.870850,1149.900269 1903.326782,1142.011108 1904.072144,1134.152466 
	C1905.343140,1120.751709 1906.792725,1107.367310 1907.964600,1093.958252 
	C1908.810547,1084.276245 1909.481079,1074.572998 1909.957764,1064.865845 
	C1910.753174,1048.674927 1911.965210,1032.469849 1911.880371,1016.276550 
	C1911.632812,969.078552 1913.515869,921.849487 1910.056274,874.686584 
	C1909.341919,864.949524 1909.381714,855.158813 1908.982666,845.396484 
	C1908.719849,838.961914 1908.478394,832.517334 1907.901489,826.106567 
	C1906.724976,813.031738 1905.282227,799.981079 1904.039062,786.911926 
	C1903.260498,778.725098 1902.862305,770.497498 1901.911255,762.332703 
	C1900.093628,746.727783 1898.029053,731.151367 1896.017700,715.569458 
	C1894.365845,702.773193 1892.929565,689.939941 1890.883423,677.205750 
	C1887.839233,658.260071 1884.509888,639.355774 1880.989502,620.492249 
	C1877.496826,601.778503 1874.227539,582.989136 1869.746582,564.502930 
	C1864.640259,543.436462 1859.055420,522.421204 1852.296509,501.837463 
	C1844.890503,479.282532 1836.975342,456.770203 1827.336914,435.104736 
	C1815.620239,408.767700 1802.815796,382.805634 1788.727417,357.664429 
	C1775.550171,334.148926 1760.193359,311.818329 1742.684570,291.174622 
	C1729.082642,275.137238 1715.386841,259.156738 1701.131592,243.705597 
	C1693.525024,235.460632 1684.852173,228.147385 1676.290405,220.847610 
	C1663.275391,209.750671 1650.167236,198.738159 1636.690063,188.213089 
	C1610.279785,167.587814 1581.572021,150.503342 1551.954102,134.970718 
	C1540.246094,128.830658 1528.230225,123.201904 1516.057251,118.041740 
	C1497.861572,110.328575 1479.549927,102.836510 1461.006348,96.014832 
	C1448.065796,91.254387 1434.672974,87.712524 1421.447754,83.740715 
	C1411.309570,80.695969 1401.180542,77.583900 1390.931641,74.953415 
	C1380.652222,72.315079 1370.227783,70.242722 1359.869629,67.910446 
	C1351.073608,65.929932 1342.338379,63.616089 1333.473999,62.018055 
	C1320.727539,59.720211 1307.880981,57.983124 1295.090942,55.920971 
	C1285.305908,54.343296 1275.570801,52.433975 1265.762207,51.030476 
	C1252.690674,49.160110 1239.568604,47.644344 1226.469849,45.963226 
	C1210.938477,43.969891 1195.432495,41.747456 1179.871338,40.023907 
	C1165.211060,38.400135 1150.502686,37.177277 1135.797974,35.996464 
	C1121.373657,34.838165 1106.934448,33.831100 1092.488525,32.986263 
	C1078.317017,32.157475 1064.131958,31.529316 1049.946411,30.975971 
	C1038.029297,30.511114 1026.101318,29.954275 1014.181091,30.014509 
	C989.753479,30.137945 965.327087,30.600389 940.901733,31.018051 
	C927.639160,31.244835 914.378357,31.612360 901.119995,32.024078 
	C895.020874,32.213478 888.929993,32.665543 882.835022,32.991543 
	C870.315186,33.661205 857.793274,34.293652 845.275635,35.003025 
	C834.584534,35.608894 823.896545,36.274437 813.210632,36.967472 
	C808.779968,37.254818 804.348572,37.590408 799.934631,38.064056 
	C788.219910,39.321136 776.518372,40.700188 764.804321,41.964245 
	C754.865540,43.036739 744.889771,43.808830 734.979553,45.093166 
	C724.168762,46.494221 713.431458,48.453506 702.631409,49.947819 
	C689.706421,51.736137 676.719238,53.089390 663.814453,55.004860 
	C652.299072,56.714115 640.812744,58.700264 629.397095,60.981674 
	C613.274719,64.203697 597.114624,67.352867 581.174805,71.347885 
	C548.587158,79.515350 516.332214,88.772095 484.878540,100.797554 
	C457.003967,111.454659 429.669434,123.157288 403.282623,137.129547 
	C378.701416,150.145721 354.667694,164.050156 332.491547,180.865768 
	C314.632843,194.407547 296.928680,208.207870 279.877869,222.740494 
	C269.237122,231.809723 259.745605,242.270325 250.092667,252.442749 
	C241.391525,261.612183 232.770279,270.914612 224.839478,280.743927 
	C214.059189,294.104828 203.237000,307.537140 193.763550,321.821411 
	C181.122223,340.882172 168.907486,360.332703 158.083939,380.462372 
	C147.097290,400.895294 137.127945,421.991760 128.367966,443.472473 
	C119.652596,464.843842 112.148262,486.806244 105.656578,508.961792 
	C98.193855,534.431458 92.131660,560.328247 86.038582,586.175659 
	C82.716942,600.266296 80.540009,614.629639 77.940628,628.887085 
	C75.542458,642.040833 73.158020,655.198914 70.975914,668.389648 
	C69.135925,679.512268 67.572456,690.681152 65.927452,701.835510 
	C63.924011,715.420349 61.719913,728.981750 60.052860,742.608398 
	C58.398014,756.135193 57.310719,769.731384 55.959240,783.295532 
	C54.314972,799.798401 52.422626,816.280640 51.067852,832.807068 
	C49.760822,848.751160 48.825153,864.731628 48.056480,880.711975 
	C47.427063,893.797241 47.229401,906.904785 46.945824,920.004700 
	C46.794422,926.998779 46.866283,933.997742 46.100109,941.440430 
z"/>
<path fill="#FF5334" opacity="1.000000" stroke="none" 
	d="
M953.971313,1889.101318 
	C950.973145,1889.067505 947.974670,1889.050415 944.976868,1888.997437 
	C926.380493,1888.669312 907.774353,1888.604004 889.191040,1887.919556 
	C872.215637,1887.294189 855.253784,1886.152710 838.306641,1884.948120 
	C822.565247,1883.829590 806.828125,1882.550049 791.131287,1880.932373 
	C774.508545,1879.219238 757.927551,1877.088623 741.343018,1875.022095 
	C723.148132,1872.754883 704.891174,1870.836670 686.803406,1867.892944 
	C661.122009,1863.713257 635.550293,1858.843872 609.968384,1854.072754 
	C574.825012,1847.518433 540.537964,1837.729492 506.797852,1826.016235 
	C482.152924,1817.460449 458.107819,1807.482910 434.447327,1796.412109 
	C403.087067,1781.738281 373.332794,1764.370239 344.801208,1744.931885 
	C330.886658,1735.451904 317.544739,1725.002441 304.729767,1714.070312 
	C288.706207,1700.401001 272.745941,1686.503662 258.134155,1671.375854 
	C243.049240,1655.758545 229.487015,1638.654419 215.490707,1622.005737 
	C197.346527,1600.423096 182.074203,1576.754517 168.226273,1552.336548 
	C156.149704,1531.041870 145.720047,1508.777710 135.246735,1486.618652 
	C122.875366,1460.443726 113.020454,1433.228149 104.855637,1405.471436 
	C98.135834,1382.627197 91.815010,1359.639160 86.246658,1336.491333 
	C82.052589,1319.056152 79.271797,1301.278198 75.968666,1283.632690 
	C72.919655,1267.344727 69.763184,1251.070557 67.117500,1234.715332 
	C64.743736,1220.040894 62.899490,1205.277222 61.006111,1190.529419 
	C58.899677,1174.122192 56.781490,1157.710938 55.082977,1141.258667 
	C53.725563,1128.110474 52.914268,1114.903564 51.996986,1101.713135 
	C50.910603,1086.090942 49.913528,1070.462158 48.990982,1054.829346 
	C48.523209,1046.902832 48.304371,1038.961548 48.042145,1030.095581 
	C47.795479,1021.206177 47.479664,1013.248169 47.163849,1005.290161 
	C47.094238,1000.838928 47.024624,996.387695 46.966827,991.009277 
	C46.931553,973.719604 46.884468,957.357056 46.837379,940.994507 
	C46.866283,933.997742 46.794422,926.998779 46.945824,920.004700 
	C47.229401,906.904785 47.427063,893.797241 48.056480,880.711975 
	C48.825153,864.731628 49.760822,848.751160 51.067852,832.807068 
	C52.422626,816.280640 54.314972,799.798401 55.959240,783.295532 
	C57.310719,769.731384 58.398014,756.135193 60.052860,742.608398 
	C61.719913,728.981750 63.924011,715.420349 65.927452,701.835510 
	C67.572456,690.681152 69.135925,679.512268 70.975914,668.389648 
	C73.158020,655.198914 75.542458,642.040833 77.940628,628.887085 
	C80.540009,614.629639 82.716942,600.266296 86.038582,586.175659 
	C92.131660,560.328247 98.193855,534.431458 105.656578,508.961792 
	C112.148262,486.806244 119.652596,464.843842 128.367966,443.472473 
	C137.127945,421.991760 147.097290,400.895294 158.083939,380.462372 
	C168.907486,360.332703 181.122223,340.882172 193.763550,321.821411 
	C203.237000,307.537140 214.059189,294.104828 224.839478,280.743927 
	C232.770279,270.914612 241.391525,261.612183 250.092667,252.442749 
	C259.745605,242.270325 269.237122,231.809723 279.877869,222.740494 
	C296.928680,208.207870 314.632843,194.407547 332.491547,180.865768 
	C354.667694,164.050156 378.701416,150.145721 403.282623,137.129547 
	C429.669434,123.157288 457.003967,111.454659 484.878540,100.797554 
	C516.332214,88.772095 548.587158,79.515350 581.174805,71.347885 
	C597.114624,67.352867 613.274719,64.203697 629.397095,60.981674 
	C640.812744,58.700264 652.299072,56.714115 663.814453,55.004860 
	C676.719238,53.089390 689.706421,51.736137 702.631409,49.947819 
	C713.431458,48.453506 724.168762,46.494221 734.979553,45.093166 
	C744.889771,43.808830 754.865540,43.036739 764.804321,41.964245 
	C776.518372,40.700188 788.219910,39.321136 799.934631,38.064056 
	C804.348572,37.590408 808.779968,37.254818 813.210632,36.967472 
	C823.896545,36.274437 834.584534,35.608894 845.275635,35.003025 
	C857.793274,34.293652 870.315186,33.661205 882.835022,32.991543 
	C888.929993,32.665543 895.020874,32.213478 901.119995,32.024078 
	C914.378357,31.612360 927.639160,31.244835 940.901733,31.018051 
	C965.327087,30.600389 989.753479,30.137945 1014.181091,30.014509 
	C1026.101318,29.954275 1038.029297,30.511114 1049.946411,30.975971 
	C1064.131958,31.529316 1078.317017,32.157475 1092.488525,32.986263 
	C1106.934448,33.831100 1121.373657,34.838165 1135.797974,35.996464 
	C1150.502686,37.177277 1165.211060,38.400135 1179.871338,40.023907 
	C1195.432495,41.747456 1210.938477,43.969891 1226.469849,45.963226 
	C1239.568604,47.644344 1252.690674,49.160110 1265.762207,51.030476 
	C1275.570801,52.433975 1285.305908,54.343296 1295.090942,55.920971 
	C1307.880981,57.983124 1320.727539,59.720211 1333.473999,62.018055 
	C1342.338379,63.616089 1351.073608,65.929932 1359.869629,67.910446 
	C1370.227783,70.242722 1380.652222,72.315079 1390.931641,74.953415 
	C1401.180542,77.583900 1411.309570,80.695969 1421.447754,83.740715 
	C1434.672974,87.712524 1448.065796,91.254387 1461.006348,96.014832 
	C1479.549927,102.836510 1497.861572,110.328575 1516.057251,118.041740 
	C1528.230225,123.201904 1540.246094,128.830658 1551.954102,134.970718 
	C1581.572021,150.503342 1610.279785,167.587814 1636.690063,188.213089 
	C1650.167236,198.738159 1663.275391,209.750671 1676.290405,220.847610 
	C1684.852173,228.147385 1693.525024,235.460632 1701.131592,243.705597 
	C1715.386841,259.156738 1729.082642,275.137238 1742.684570,291.174622 
	C1760.193359,311.818329 1775.550171,334.148926 1788.727417,357.664429 
	C1802.815796,382.805634 1815.620239,408.767700 1827.336914,435.104736 
	C1836.975342,456.770203 1844.890503,479.282532 1852.296509,501.837463 
	C1859.055420,522.421204 1864.640259,543.436462 1869.746582,564.502930 
	C1874.227539,582.989136 1877.496826,601.778503 1880.989502,620.492249 
	C1884.509888,639.355774 1887.839233,658.260071 1890.883423,677.205750 
	C1892.929565,689.939941 1894.365845,702.773193 1896.017700,715.569458 
	C1898.029053,731.151367 1900.093628,746.727783 1901.911255,762.332703 
	C1902.862305,770.497498 1903.260498,778.725098 1904.039062,786.911926 
	C1905.282227,799.981079 1906.724976,813.031738 1907.901489,826.106567 
	C1908.478394,832.517334 1908.719849,838.961914 1908.982666,845.396484 
	C1909.381714,855.158813 1909.341919,864.949524 1910.056274,874.686584 
	C1913.515869,921.849487 1911.632812,969.078552 1911.880371,1016.276550 
	C1911.965210,1032.469849 1910.753174,1048.674927 1909.957764,1064.865845 
	C1909.481079,1074.572998 1908.810547,1084.276245 1907.964600,1093.958252 
	C1906.792725,1107.367310 1905.343140,1120.751709 1904.072144,1134.152466 
	C1903.326782,1142.011108 1902.870850,1149.900269 1901.976440,1157.740601 
	C1900.491821,1170.754272 1898.781738,1183.742554 1897.123169,1196.735840 
	C1895.796265,1207.131470 1894.492310,1217.531128 1893.019897,1227.906616 
	C1891.069702,1241.649780 1889.216309,1255.414062 1886.861816,1269.090332 
	C1884.181519,1284.659424 1881.351562,1300.220459 1877.941772,1315.642334 
	C1873.198486,1337.093994 1868.839111,1358.708374 1862.526123,1379.715454 
	C1854.290527,1407.120239 1845.352905,1434.417603 1834.751465,1460.976318 
	C1825.631592,1483.822754 1813.920654,1505.650391 1803.049316,1527.778076 
	C1791.498535,1551.288574 1777.314575,1573.252563 1762.118896,1594.525146 
	C1752.893677,1607.439941 1742.907104,1619.813477 1733.189819,1632.373901 
	C1718.200928,1651.748413 1701.168213,1669.292603 1683.383911,1686.022949 
	C1670.183716,1698.440796 1656.209106,1710.093872 1642.020996,1721.385986 
	C1628.616211,1732.054688 1614.918457,1742.479614 1600.557251,1751.789917 
	C1583.412476,1762.905029 1565.487427,1772.827637 1547.788452,1783.073730 
	C1523.321045,1797.238281 1497.359863,1808.277710 1471.082153,1818.482788 
	C1442.687378,1829.510010 1413.722290,1838.935669 1384.063599,1846.018433 
	C1365.191528,1850.525391 1346.289673,1854.967163 1327.265747,1858.759155 
	C1312.370850,1861.728271 1297.271851,1863.680176 1282.256104,1866.036865 
	C1269.503296,1868.038452 1256.765137,1870.160156 1243.973755,1871.881592 
	C1231.946777,1873.500000 1219.854248,1874.626709 1207.798828,1876.039307 
	C1197.062866,1877.297241 1186.349365,1878.753662 1175.604614,1879.927124 
	C1167.759766,1880.783691 1159.882446,1881.348389 1152.015869,1881.999146 
	C1135.786987,1883.341553 1119.558105,1884.684204 1103.324219,1885.963745 
	C1097.733154,1886.404419 1092.130615,1886.732666 1086.527588,1886.978638 
	C1077.431763,1887.377808 1068.333374,1887.780884 1059.231812,1887.979004 
	C1040.142334,1888.394409 1021.049988,1888.677856 1001.025879,1889.004883 
	C984.719055,1889.030029 969.345215,1889.065674 953.971313,1889.101318 
M1237.500000,1397.000977 
	C1277.832886,1397.000977 1318.167603,1397.213623 1358.497437,1396.862305 
	C1369.594604,1396.765747 1380.824219,1395.804810 1391.742798,1393.845581 
	C1468.643188,1380.046387 1526.851562,1310.216064 1526.852783,1232.238647 
	C1526.855103,1091.739746 1526.868042,951.240784 1526.794556,810.741882 
	C1526.791870,805.609924 1526.362427,800.392700 1525.384155,795.360535 
	C1519.025146,762.647339 1498.028687,743.184265 1466.952881,735.254578 
	C1419.652954,723.185059 1376.826904,734.750305 1340.092407,765.918213 
	C1293.106934,805.783691 1247.164551,846.883667 1200.966797,887.671387 
	C1141.406250,940.257019 1082.093140,993.122742 1022.557068,1045.736206 
	C1001.544434,1064.305542 969.961121,1062.765381 951.095398,1043.277344 
	C899.650330,990.135315 847.981323,937.210022 796.394104,884.205688 
	C766.648682,853.643250 737.089783,822.895508 707.048096,792.626953 
	C693.096069,778.569519 678.193787,765.455261 663.381470,751.594604 
	C646.011780,767.827820 626.838501,785.746704 607.413330,803.900879 
	C612.469055,809.202942 617.127747,814.151672 621.854126,819.034851 
	C647.226929,845.249268 672.638611,871.426086 697.995605,897.655823 
	C740.949951,942.088379 783.872070,986.552124 826.810303,1031.000244 
	C857.248657,1062.509033 887.953003,1093.766235 918.062622,1125.586060 
	C951.790833,1161.230103 1006.377747,1165.623169 1043.043945,1134.311523 
	C1096.623657,1088.556396 1149.792725,1042.320190 1203.129150,996.279968 
	C1273.742432,935.326172 1344.323364,874.334656 1415.033325,813.493286 
	C1418.472656,810.533997 1422.793213,808.216003 1427.093506,806.720459 
	C1435.976440,803.630920 1443.103516,807.460449 1445.743408,816.483521 
	C1446.847900,820.258667 1447.327515,824.348206 1447.329834,828.295227 
	C1447.408325,962.294128 1447.495850,1096.293213 1447.307251,1230.291992 
	C1447.270996,1256.130737 1436.836792,1277.765869 1417.691650,1295.077148 
	C1399.746094,1311.303467 1378.265137,1317.847290 1354.399902,1317.844849 
	C1117.235107,1317.820068 880.070190,1317.829834 642.905334,1317.829834 
	C640.646973,1317.829834 638.388672,1317.829834 636.197937,1317.829834 
	C636.197937,1344.614014 636.197937,1370.670898 636.197937,1397.000977 
	C836.543884,1397.000977 1036.521973,1397.000977 1237.500000,1397.000977 
M834.500061,538.393372 
	C724.344360,538.393311 614.188660,538.389832 504.032990,538.395081 
	C463.062714,538.397034 430.001343,571.430664 430.000458,612.384460 
	C429.994812,872.026306 429.997559,1131.668213 429.997559,1391.310059 
	C429.997559,1393.085205 429.997559,1394.860352 429.997559,1396.717285 
	C456.632782,1396.717285 482.705353,1396.717285 509.280823,1396.717285 
	C509.280823,1137.050659 509.280823,877.668396 509.280823,617.751343 
	C848.656128,617.751343 1187.527588,617.751343 1526.575195,617.751343 
	C1526.575195,591.144897 1526.575195,565.074707 1526.575195,538.393738 
	C1296.030762,538.393738 1065.765381,538.393738 834.500061,538.393372 
z"/>
<path fill="#060000" opacity="1.000000" stroke="none" 
	d="
M46.468746,941.217468 
	C46.884468,957.357056 46.931553,973.719604 46.904282,990.546753 
	C46.553371,990.148926 46.036747,989.286804 46.035889,988.424072 
	C46.020309,972.762878 46.066822,957.101685 46.468746,941.217468 
z"/>
<path fill="#350703" opacity="1.000000" stroke="none" 
	d="
M954.174683,1889.486816 
	C969.345215,1889.065674 984.719055,1889.030029 1000.560791,1889.047852 
	C1000.194275,1889.400513 999.360046,1889.959717 998.525513,1889.960327 
	C983.809692,1889.971436 969.093933,1889.914551 954.174683,1889.486816 
z"/>
<path fill="#59150B" opacity="1.000000" stroke="none" 
	d="
M47.126606,1005.733948 
	C47.479664,1013.248169 47.795479,1021.206177 48.029949,1029.633545 
	C47.621765,1027.615723 47.065399,1025.133179 47.015030,1022.640442 
	C46.904202,1017.155640 47.048939,1011.665649 47.126606,1005.733948 
z"/>
<path fill="#FFFEFE" opacity="1.000000" stroke="none" 
	d="
M1237.000000,1397.000977 
	C1036.521973,1397.000977 836.543884,1397.000977 636.197937,1397.000977 
	C636.197937,1370.670898 636.197937,1344.614014 636.197937,1317.829834 
	C638.388672,1317.829834 640.646973,1317.829834 642.905334,1317.829834 
	C880.070190,1317.829834 1117.235107,1317.820068 1354.399902,1317.844849 
	C1378.265137,1317.847290 1399.746094,1311.303467 1417.691650,1295.077148 
	C1436.836792,1277.765869 1447.270996,1256.130737 1447.307251,1230.291992 
	C1447.495850,1096.293213 1447.408325,962.294128 1447.329834,828.295227 
	C1447.327515,824.348206 1446.847900,820.258667 1445.743408,816.483521 
	C1443.103516,807.460449 1435.976440,803.630920 1427.093506,806.720459 
	C1422.793213,808.216003 1418.472656,810.533997 1415.033325,813.493286 
	C1344.323364,874.334656 1273.742432,935.326172 1203.129150,996.279968 
	C1149.792725,1042.320190 1096.623657,1088.556396 1043.043945,1134.311523 
	C1006.377747,1165.623169 951.790833,1161.230103 918.062622,1125.586060 
	C887.953003,1093.766235 857.248657,1062.509033 826.810303,1031.000244 
	C783.872070,986.552124 740.949951,942.088379 697.995605,897.655823 
	C672.638611,871.426086 647.226929,845.249268 621.854126,819.034851 
	C617.127747,814.151672 612.469055,809.202942 607.413330,803.900879 
	C626.838501,785.746704 646.011780,767.827820 663.381470,751.594604 
	C678.193787,765.455261 693.096069,778.569519 707.048096,792.626953 
	C737.089783,822.895508 766.648682,853.643250 796.394104,884.205688 
	C847.981323,937.210022 899.650330,990.135315 951.095398,1043.277344 
	C969.961121,1062.765381 1001.544434,1064.305542 1022.557068,1045.736206 
	C1082.093140,993.122742 1141.406250,940.257019 1200.966797,887.671387 
	C1247.164551,846.883667 1293.106934,805.783691 1340.092407,765.918213 
	C1376.826904,734.750305 1419.652954,723.185059 1466.952881,735.254578 
	C1498.028687,743.184265 1519.025146,762.647339 1525.384155,795.360535 
	C1526.362427,800.392700 1526.791870,805.609924 1526.794556,810.741882 
	C1526.868042,951.240784 1526.855103,1091.739746 1526.852783,1232.238647 
	C1526.851562,1310.216064 1468.643188,1380.046387 1391.742798,1393.845581 
	C1380.824219,1395.804810 1369.594604,1396.765747 1358.497437,1396.862305 
	C1318.167603,1397.213623 1277.832886,1397.000977 1237.000000,1397.000977 
z"/>
<path fill="#FFFEFE" opacity="1.000000" stroke="none" 
	d="
M835.000122,538.393555 
	C1065.765381,538.393738 1296.030762,538.393738 1526.575195,538.393738 
	C1526.575195,565.074707 1526.575195,591.144897 1526.575195,617.751343 
	C1187.527588,617.751343 848.656128,617.751343 509.280823,617.751343 
	C509.280823,877.668396 509.280823,1137.050659 509.280823,1396.717285 
	C482.705353,1396.717285 456.632782,1396.717285 429.997559,1396.717285 
	C429.997559,1394.860352 429.997559,1393.085205 429.997559,1391.310059 
	C429.997559,1131.668213 429.994812,872.026306 430.000458,612.384460 
	C430.001343,571.430664 463.062714,538.397034 504.032990,538.395081 
	C614.188660,538.389832 724.344360,538.393311 835.000122,538.393555 
z"/>
</svg>