<?xml version="1.0" standalone="no"?>
<!DOCTYPE svg PUBLIC "-//W3C//DTD SVG 20010904//EN"
 "http://www.w3.org/TR/2001/REC-SVG-20010904/DTD/svg10.dtd">
<svg version="1.0" xmlns="http://www.w3.org/2000/svg"
 width="256.000000pt" height="256.000000pt" viewBox="0 0 256.000000 256.000000"
 preserveAspectRatio="xMidYMid meet">

<g transform="translate(0.000000,256.000000) scale(0.100000,-0.100000)"
fill="#000000" stroke="none">
<path d="M1014 2494 c-164 -18 -316 -50 -330 -69 -9 -12 -13 -13 -17 -3 -4 11
-6 11 -6 0 -1 -7 -6 -10 -12 -6 -14 9 -193 -82 -231 -118 -17 -15 -32 -28 -34
-28 -11 0 -61 -52 -101 -105 -104 -138 -165 -313 -197 -565 -27 -213 -25 -497
4 -649 6 -31 13 -67 16 -81 12 -68 39 -170 55 -208 10 -23 19 -46 20 -50 9
-50 112 -194 185 -260 76 -68 81 -72 94 -72 5 0 10 -4 10 -8 0 -11 80 -56 80
-45 0 4 4 3 8 -3 10 -16 82 -45 93 -38 5 3 9 0 9 -6 0 -6 4 -9 9 -5 5 3 12 1
15 -4 12 -18 212 -57 353 -69 228 -18 692 6 713 37 3 5 13 7 23 5 32 -5 217
60 217 76 0 4 18 12 39 19 22 6 53 24 71 41 17 16 33 28 35 27 10 -5 145 135
145 151 0 5 7 12 15 16 8 3 15 12 15 20 0 8 4 16 8 18 17 7 81 146 105 228 50
169 62 273 62 555 0 274 -11 385 -57 555 -21 78 -83 220 -102 232 -6 4 -7 8
-3 8 12 0 -50 87 -75 105 -13 8 -18 15 -13 15 12 0 -47 53 -119 106 -32 24
-62 41 -67 38 -5 -3 -9 -1 -9 4 0 11 -99 57 -167 77 -127 39 -413 79 -399 57
4 -6 -6 -5 -21 3 -36 19 -265 18 -439 -1z m984 -696 l3 -58 -666 0 -665 0 0
-510 0 -510 -55 0 -55 0 0 538 c1 427 3 541 14 554 37 49 25 48 746 45 l675
-2 3 -57z m-44 -209 c-2 -4 2 -11 9 -16 34 -20 37 -50 37 -355 0 -183 -4 -318
-11 -341 -15 -54 -103 -140 -149 -147 -19 -3 -255 -5 -524 -5 l-489 0 -3 25
c-1 14 0 40 3 58 l5 32 485 0 c348 0 490 3 506 12 33 17 48 35 58 70 10 38 11
484 1 541 -7 37 -7 37 -30 22 -12 -9 -19 -21 -16 -27 4 -7 2 -8 -5 -4 -7 5
-40 -18 -84 -56 -39 -35 -83 -73 -97 -84 -14 -12 -88 -76 -165 -143 -197 -170
-211 -171 -353 -23 -51 53 -99 96 -105 94 -7 -2 -8 0 -4 4 4 4 -48 63 -115
131 l-123 123 41 40 40 41 185 -187 c101 -102 190 -193 197 -200 26 -27 74
-17 117 24 82 78 391 346 420 364 23 14 46 18 102 16 39 -1 70 -5 67 -9z"/>
</g>
</svg>
